<svg xmlns="http://www.w3.org/2000/svg" viewBox="0 0 24 24" fill="none" stroke="#3182f6" stroke-width="2.5" stroke-linecap="round" stroke-linejoin="round">
  <path d="M14.4 14.4 9.6 9.6"/>
  <path d="M18.65 21.35a2.12 2.12 0 0 1-2.99 0l-1.41-1.42a2.12 2.12 0 0 1 0-2.99l.35-.35a2.12 2.12 0 0 1 2.99 0l1.41 1.42a2.12 2.12 0 0 1 0 2.99l-.35.35Z"/>
  <path d="m21.5 21.5-1.4-1.4"/>
  <path d="M3.9 3.9 2.5 2.5"/>
  <path d="M6.4 7.56a2.12 2.12 0 0 1 2.99 0l1.41 1.42a2.12 2.12 0 0 1 0 2.99l-.35.35a2.12 2.12 0 0 1-2.99 0L6.05 10.9a2.12 2.12 0 0 1 0-2.99l.35-.35Z"/>
</svg>